Coordinates
version=1
nRows=26
nColumns=22
inDegrees=yes

Units are S.I. units (second, meters, Newtons, ...)
If the header above contains a line with 'inDegrees', this indicates whether rotational values are in degrees (yes) or radians (no).

endheader
time	pelvis_tilt	pelvis_list	pelvis_rotation	pelvis_tx	pelvis_ty	pelvis_tz	hip_flexion_r	hip_adduction_r	hip_rotation_r	knee_angle_r	ankle_angle_r	subtalar_angle_r	hip_flexion_l	hip_adduction_l	hip_rotation_l	knee_angle_l	ankle_angle_l	subtalar_angle_l	lumbar_extension	lumbar_bending	lumbar_rotation
      0.01000000	    -11.92861904	     -0.85318277	     -8.12043014	     -0.95336327	      0.97539907	     -0.32495853	     18.07977776	      4.02485003	     -3.91284911	    -20.70709066	     19.98051455	     -6.88443612	     19.29942223	     -0.75657879	     -4.04700988	    -21.31881479	     20.56058853	     -5.15798807	      4.96340140	      3.22827430	      3.89079902
      0.02000000	    -11.93155197	     -0.85486576	     -8.11451847	     -0.95339056	      0.97539556	     -0.32500923	     18.08235497	      4.02396347	     -3.91068043	    -20.70314935	     19.97901594	     -6.88312347	     19.30501356	     -0.75567487	     -4.04914821	    -21.31712181	     20.56110505	     -5.15678012	      4.95450311	      3.23565599	      3.89172050
      0.03000000	    -11.93465057	     -0.85698168	     -8.10760362	     -0.95341487	      0.97539041	     -0.32506463	     18.08453876	      4.02296154	     -3.90819000	    -20.69921025	     19.97781554	     -6.88181847	     19.31087336	     -0.75446001	     -4.04981851	    -21.31674729	     20.56112520	     -5.15545066	      4.94565996	      3.24292772	      3.89308045
      0.04000000	    -11.93835584	     -0.87348815	     -8.08833230	     -0.95345936	      0.97538262	     -0.32513481	     18.07946744	      4.03648948	     -3.89869538	    -20.68293441	     19.96870512	     -6.86986437	     19.33520025	     -0.76470383	     -4.02764041	    -21.35187718	     20.55725963	     -5.14355678	      4.93066888	      3.26347322	      3.88771606
      0.05000000	    -11.94337929	     -0.87501114	     -8.08185395	     -0.95347716	      0.97537704	     -0.32519364	     18.08348754	      4.03445394	     -3.89866187	    -20.67862392	     19.96875030	     -6.86904056	     19.34014312	     -0.76298184	     -4.02909310	    -21.34654598	     20.55829987	     -5.14263873	      4.92098161	      3.27036087	      3.88740141
      0.06000000	    -11.94808673	     -0.87692686	     -8.07187508	     -0.95348511	      0.97537032	     -0.32526500	     18.08635338	      4.03176421	     -3.89755297	    -20.67460219	     19.96885870	     -6.86802827	     19.34583848	     -0.75994367	     -4.02890687	    -21.34341725	     20.55908406	     -5.14165514	      4.91134713	      3.27850071	      3.88671250
      0.07000000	    -11.96107594	     -0.91060038	     -8.01115666	     -0.95349014	      0.97535161	     -0.32541446	     18.07954131	      4.04781204	     -3.94867490	    -20.64643706	     19.96846034	     -6.84209229	     19.37700058	     -0.77100095	     -3.94588526	    -21.37077463	     20.56381863	     -5.11909892	      4.90761135	      3.32055296	      3.81120635
      0.08000000	    -11.96578699	     -0.91142324	     -8.00080623	     -0.95348043	      0.97534422	     -0.32549374	     18.08211931	      4.04299652	     -3.94673355	    -20.64380359	     19.96828951	     -6.84153513	     19.38200926	     -0.76627742	     -3.94690804	    -21.36765902	     20.56428959	     -5.11870227	      4.89731565	      3.32776064	      3.81240385
      0.09000000	    -11.96666338	     -0.92229276	     -7.94750813	     -0.95346900	      0.97534235	     -0.32563957	     18.07092944	      4.03474649	     -3.98893794	    -20.62656515	     19.97327502	     -6.82651913	     19.39300010	     -0.75249092	     -3.87416599	    -21.37695230	     20.55606670	     -5.10537043	      4.88067227	      3.34106762	      3.74832917
      0.10000000	    -11.97101577	     -0.92272053	     -7.93771767	     -0.95342971	      0.97533469	     -0.32572321	     18.07144716	      4.02881772	     -3.98703914	    -20.62469044	     19.97337042	     -6.82618921	     19.39586840	     -0.74659466	     -3.87514188	    -21.37442573	     20.55635943	     -5.10506027	      4.87318263	      3.35072130	      3.74948225
      0.11000000	    -11.97557672	     -0.92233613	     -7.92948815	     -0.95339580	      0.97532620	     -0.32579622	     18.07206456	      4.02325072	     -3.98588171	    -20.62059335	     19.97401282	     -6.82574341	     19.39929999	     -0.74009604	     -3.87329109	    -21.37204949	     20.55637614	     -5.10453941	      4.86332699	      3.35821913	      3.74766608
      0.12000000	    -11.96855844	     -0.91409931	     -7.89634201	     -0.95334920	      0.97533423	     -0.32590096	     18.05096255	      4.00185853	     -3.99239091	    -20.59982092	     19.98404128	     -6.82015665	     19.39699032	     -0.71115143	     -3.81696438	    -21.37938127	     20.55161925	     -5.09890274	      4.84276189	      3.34910778	      3.70259923
      0.13000000	    -11.97408976	     -0.91365333	     -7.89409975	     -0.95330219	      0.97532648	     -0.32595606	     18.05282285	      3.99792663	     -3.99463642	    -20.59743542	     19.98520138	     -6.81998477	     19.39764638	     -0.70637791	     -3.81745716	    -21.37403046	     20.55165171	     -5.09876075	      4.83323865	      3.35570724	      3.70332814
      0.14000000	    -11.97839381	     -0.91128652	     -7.89489530	     -0.95323628	      0.97531967	     -0.32601545	     18.05256068	      3.99098323	     -3.99606718	    -20.59486465	     19.98687602	     -6.81975291	     19.39651116	     -0.69943459	     -3.81649361	    -21.37097099	     20.55233406	     -5.09885333	      4.82523352	      3.36187934	      3.70431276
      0.15000000	    -11.91207518	     -0.87026345	     -7.89948492	     -0.95309285	      0.97542778	     -0.32608117	     17.98105180	      3.93037825	     -4.00603885	    -20.59809576	     20.03218373	     -6.80279295	     19.29403559	     -0.63712744	     -3.81040634	    -21.31735743	     20.52959405	     -5.11998368	      4.74383636	      3.30844023	      3.72128630
      0.16000000	    -11.91632933	     -0.86822096	     -7.90036854	     -0.95300394	      0.97542327	     -0.32615348	     17.97921050	      3.92320447	     -4.00388455	    -20.59545187	     20.03216383	     -6.80241137	     19.29316204	     -0.62945195	     -3.81099941	    -21.31749960	     20.53323886	     -5.12072151	      4.73755986	      3.31602695	      3.72450970
      0.17000000	    -11.88164543	     -0.83717735	     -7.91903953	     -0.95288288	      0.97547003	     -0.32619805	     17.94486623	      3.88486540	     -3.98115711	    -20.60581044	     20.05584410	     -6.79280554	     19.23620664	     -0.58928720	     -3.82543745	    -21.29002283	     20.56667376	     -5.14098638	      4.69063959	      3.27947282	      3.75955908
      0.18000000	    -11.88609819	     -0.83613560	     -7.91752880	     -0.95280120	      0.97546532	     -0.32627702	     17.94297597	      3.87808319	     -3.98056691	    -20.60159764	     20.05698325	     -6.79229877	     19.23834456	     -0.58248560	     -3.82623353	    -21.29274153	     20.56571518	     -5.14180843	      4.68050462	      3.28460517	      3.76524994
      0.19000000	    -11.87815011	     -0.82589049	     -7.91534940	     -0.95271689	      0.97546642	     -0.32634664	     17.92953419	      3.85969945	     -3.98068191	    -20.59885095	     20.06616522	     -6.78879055	     19.23838763	     -0.56437866	     -3.82139766	    -21.31648829	     20.56830019	     -5.14710604	      4.65742379	      3.26897746	      3.79337717
      0.20000000	    -11.84725333	     -0.79819715	     -7.92417710	     -0.95260497	      0.97549877	     -0.32642564	     17.90770602	      3.81890869	     -3.97769229	    -20.62628577	     20.10804100	     -6.77198996	     19.19284662	     -0.52622709	     -3.83938210	    -21.29725253	     20.57697078	     -5.16744418	      4.60821490	      3.23513434	      3.82151431
      0.21000000	    -11.84715080	     -0.79438359	     -7.92184907	     -0.95250378	      0.97549019	     -0.32651120	     17.89896642	      3.80730749	     -3.97641952	    -20.61999560	     20.10964325	     -6.76773340	     19.19724038	     -0.51484833	     -3.83364437	    -21.31449313	     20.57777474	     -5.17058258	      4.59128862	      3.22961248	      3.84455817
      0.22000000	    -11.84293979	     -0.78734084	     -7.92234900	     -0.95239721	      0.97547927	     -0.32660176	     17.89248244	      3.79087262	     -3.97728798	    -20.62638514	     20.11886220	     -6.76177521	     19.19790727	     -0.49963472	     -3.83104490	    -21.33294325	     20.58610902	     -5.17538844	      4.56711274	      3.21883592	      3.87497094
      0.23000000	    -11.83705466	     -0.77909761	     -7.92656305	     -0.95227582	      0.97546558	     -0.32669201	     17.88606217	      3.77271114	     -3.97874138	    -20.63742947	     20.13377162	     -6.75416828	     19.19678234	     -0.48389792	     -3.83209608	    -21.35389747	     20.59758612	     -5.18114359	      4.53982853	      3.20565043	      3.90981774
      0.24000000	    -11.81559386	     -0.76349682	     -7.94547289	     -0.95214194	      0.97546388	     -0.32676459	     17.87469007	      3.74736900	     -3.97110634	    -20.67044087	     20.17675039	     -6.72623169	     19.17252104	     -0.46429271	     -3.86188991	    -21.36403799	     20.62207808	     -5.19768715	      4.48989966	      3.18108284	      3.95771891
      0.25000000	    -11.81412869	     -0.76143557	     -7.95062851	     -0.95198998	      0.97544004	     -0.32686219	     17.86245425	      3.73657989	     -3.96889028	    -20.66616196	     20.18095460	     -6.71901003	     19.18277494	     -0.45374643	     -3.85096122	    -21.40407840	     20.62620854	     -5.20105439	      4.46524392	      3.17284705	      3.99403672
      0.26000000	    -11.80810349	     -0.76268536	     -7.96050594	     -0.95185311	      0.97541095	     -0.32696155	     17.85449755	      3.72843599	     -3.96535600	    -20.67792336	     20.19419741	     -6.70995794	     19.19509678	     -0.44803718	     -3.84379279	    -21.45844385	     20.64266976	     -5.20639110	      4.42570938	      3.16579512	      4.03817192
